<svg width="200" height="150" viewBox="0 0 800 600" fill="none" xmlns="http://www.w3.org/2000/svg" data-reactroot="">
<path opacity="0.05" d="M41.3279 232.735C45.4686 243.047 51.4842 253.672 52.8904 261.797C56.7967 283.985 57.1873 308.36 51.3279 330.469C49.0623 338.985 44.6873 346.328 44.7654 355.391C44.9217 370.156 52.8123 389.297 59.3748 402.11C64.2967 411.797 74.4529 437.5 84.2186 442.578C98.7498 450.078 711.64 501.797 702.734 443.203C698.437 415 726.25 328.594 713.515 304.531C709.219 296.406 704.687 285.313 711.64 277.266C718.437 269.375 733.984 271.094 742.344 265.156C758.828 253.516 761.094 231.719 749.297 216.797C739.375 204.297 724.687 207.578 710.859 206.641C673.828 204.141 649.687 153.438 635 124.375C632.812 120.078 626.406 101.406 621.094 99.8439C615.703 98.2814 617.031 103.203 613.125 104.063C599.531 106.953 595.156 105 583.359 94.6095C563.672 77.2658 536.172 60.6252 509.14 58.7502C454.062 54.922 408.906 86.6408 359.14 103.516C329.844 113.438 299.922 112.969 269.609 111.328C260.078 110.781 236.015 113.203 230 105.625C206.094 138.125 164.297 135.078 128.75 135.938C116.25 136.25 98.9842 134.063 87.8904 140.078C79.1404 144.766 72.6561 157.11 66.7186 164.922C56.0154 178.906 43.5936 194.531 38.1248 211.094C36.0936 217.188 38.1248 224.844 41.3279 232.735Z" fill="none" stroke="#221b38" stroke-width="1"></path>
<path d="M301.997 241.182L291.529 236.801V231.932L299.076 216.11L296.885 210.754L291.529 201.747H304.188L308.57 180.569L310.517 170.344L314.412 167.912H317.09L320.254 175.944L333.643 180.569L326.583 210.754L317.09 218.3L310.517 216.11L301.997 241.182Z" fill="#EED3AC"></path>
<path d="M669.375 529.922C697.266 533.984 657.891 530.313 631.719 531.406C614.922 532.109 598.281 529.375 581.484 529.531C578.203 529.531 566.328 532.188 563.828 528.125C572.812 525.078 583.672 524.609 593.203 523.984C612.656 522.656 622.187 526.484 641.562 525.078C645 524.844 668.125 522.031 670.391 525.781C671.719 527.813 670.469 529.531 669.375 529.922Z" fill="#353535"></path>
<path opacity="0.11" d="M267.5 548.75C270.391 546.016 272.422 547.422 275.703 547.578C285.781 548.125 295.781 548.125 305.859 548.125C328.438 548.203 350.625 542.969 373.203 542.031C395 541.094 416.641 540.156 438.516 540.234C452.422 540.234 469.609 542.031 482.969 537.969C482.344 533.906 476.797 533.75 474.844 532.813C483.828 532.813 492.578 533.047 501.406 530.938C508.828 529.141 507.891 528.516 502.656 525.547C492.578 519.844 481.016 518.672 469.141 518.125C446.328 517.109 423.516 519.219 400.703 517.891C379.062 516.641 356.25 516.25 334.688 517.5C334.297 520.156 335.938 522.344 338.438 522.969C327.5 523.203 316.797 525.703 306.172 528.125C295.859 530.469 283.594 530.313 274.219 534.766C264.297 539.453 252.969 542.656 241.563 543.672C241.328 544.297 241.172 544.688 240.859 545.313C246.641 552.109 265.547 547.109 267.5 548.75Z" fill="#353535"></path>
<path d="M322.578 345.781C318.047 346.172 309.687 346.172 304.141 346.172L309.063 329.453C309.063 329.453 309.609 329.375 310.703 329.141C312.031 328.828 314.219 328.281 317.109 327.344L317.578 326.875C318.125 321.875 323.281 317.187 327.578 315.234L333.516 312.188C332.5 318.203 333.828 319.844 337.422 321.953L341.016 322.891L322.578 345.781Z" fill="#EED3AC"></path>
<path d="M310.703 329.062V346.172H305.391L310.703 329.062Z" fill="#353535"></path>
<path d="M361.953 207.812C360.625 207.812 359.375 207.891 358.281 208.281C358.203 247.266 362.5 285.078 369.921 321.406C378.984 365.938 397.343 512.578 394.375 533.984C396.718 533.75 398.906 533.672 401.015 533.672C403.125 533.672 405.312 533.828 407.5 533.984C404.765 521.016 405.078 501.563 403.359 488.203C400.546 465.625 396.406 443.281 393.828 420.625C390.078 387.266 377.343 274.063 373.906 250.859C371.875 237.188 367.656 222.188 368.437 208.281C366.406 208.125 364.062 207.812 361.953 207.812Z" fill="none" stroke="#221b38" stroke-width="1"></path>
<path d="M365.547 216.562H368.438L368.281 212.969L364.219 213.672L365.547 216.562Z" fill="#353535"></path>
<path opacity="0.53" d="M517.188 107.969C521.953 109.141 526.25 115.313 529.453 118.594C535.547 124.922 539.687 133.75 542.422 141.875C546.406 153.828 546.563 170.078 541.328 181.328C537.891 188.75 532.266 196.25 525 199.453" fill="none" stroke="#221b38" stroke-width="1"></path>
<path d="M432.422 451.328C447.109 451.484 461.797 451.875 476.25 452.578C517.109 454.609 554.688 454.922 595.234 451.719C618.281 449.922 643.984 449.844 667.266 451.172C689.609 452.422 708.437 460 731.094 460.078C741.406 460.078 751.406 457.969 761.562 458.906" stroke="#FFE458" stroke-width="3.5865" stroke-miterlimit="10" stroke-linecap="round"></path>
<path d="M31.6406 456.875C54.6094 451.875 77.3438 443.672 101.172 443.672C114.062 443.672 127.109 447.5 139.766 449.297C160.078 452.188 180.625 453.281 201.094 453.828C249.766 455.234 297.813 446.953 346.563 446.797C355.234 446.797 363.984 446.641 372.813 446.406" stroke="#FFE458" stroke-width="3.5865" stroke-miterlimit="10" stroke-linecap="round"></path>
<path d="M326.953 421.484L389.844 415.781" stroke="#005B9D" stroke-width="3.5865" stroke-miterlimit="10" stroke-linecap="round"></path>
<path d="M199.454 522.031C199.454 523.203 198.516 526.25 198.985 527.735C199.532 529.453 201.875 529.453 203.282 529.61C206.485 529.922 209.766 529.922 212.969 529.922C217.422 529.922 221.875 530.703 226.329 530.86C231.954 531.094 237.891 530.86 243.516 530.469C246.719 530.235 249.844 529.61 252.891 528.75C256.407 527.735 260.625 527.344 260.938 523.047C261.016 521.563 260.703 520.156 258.907 520.078C257.11 520 257.657 522.11 256.25 522.266" fill="#7D55FF"></path>
<path d="M365.781 209.531C365.547 245.859 356.172 279.531 348.984 313.906C348.438 316.406 347.969 318.828 347.422 321.328C346.797 324.219 346.25 327.031 345.703 329.922C345.156 332.812 344.609 335.781 344.063 338.75C343.125 344.063 342.266 349.375 341.484 354.766C336.406 388.828 333.906 423.672 330.625 457.734C328.594 479.219 318.438 512.266 321.172 533.672C316.484 533.203 312.5 533.203 308.047 533.594C310.938 520.625 310.781 501.25 312.578 487.813C315.625 465.234 319.922 442.969 322.656 420.313C325.313 398.672 326.719 376.953 328.672 355.234C329.141 350.078 329.609 345 330.156 339.844C330.469 336.719 330.859 333.516 331.172 330.391C331.563 326.953 332.031 323.516 332.422 320.156C332.656 318.516 332.891 316.875 333.125 315.313C336.25 293.672 340.625 272.344 344.063 250.781C346.25 237.109 354.063 218.75 353.438 204.844C356.641 204.531 362.969 208.594 365.781 209.531Z" fill="#C4B6FF"></path>
<path d="M344.062 338.75C343.125 344.062 342.266 349.375 341.484 354.766C337.734 355.547 332.891 356.172 328.594 355.312C329.063 350.156 329.531 345.078 330.078 339.922L344.062 338.75Z" fill="#353535"></path>
<path d="M306.562 213.672C312.5 219.453 318.516 219.297 323.75 213.203C324.922 211.797 326.094 210.234 327.187 208.594" stroke="#353535" stroke-width="3.5865" stroke-miterlimit="10" stroke-linecap="round"></path>
<path d="M214.453 489.922C215.391 488.36 215 491.953 215 493.438C214.922 496.485 214.219 499.61 213.75 502.578C213.281 505.547 212.891 508.36 212.656 511.25C199.531 520.157 203.672 496.797 205.078 490.313" stroke="#353535" stroke-width="3.5865" stroke-miterlimit="10" stroke-linecap="round"></path>
<path d="M252.5 525.938C249.375 525.938 245.859 525.938 242.187 525.86C240.859 526.094 239.453 526.094 238.047 526.094C235.781 526.094 233.672 526.328 231.484 526.797C229.141 527.266 226.797 527.11 224.453 527.11C220.234 527.11 216.016 526.953 211.797 526.641C208.984 526.407 205.781 526.407 203.047 525.313C202.5 525.078 202.031 524.844 201.484 524.532C201.172 524.297 200.781 524.063 200.469 523.828C198.906 522.5 198.125 519.219 197.969 517.266C197.812 515 196.719 506.407 196.562 504.063C196.406 502.422 201.797 504.063 202.266 504.375C204.609 506.172 205.859 507.578 209.141 507.188C211.484 506.875 213.437 505.703 215.078 504.297C216.016 503.516 217.344 503.438 218.359 504.141C221.172 506.172 225.859 507.422 227.031 508.672C235.156 513.203 244.453 515.313 253.437 518.047C261.25 520.469 261.719 525.86 252.5 525.938Z" fill="#C4B6FF"></path>
<path d="M202.968 525.235C202.89 525.235 202.89 525.235 202.812 525.235C202.031 525.079 201.64 524.844 201.406 524.532C201.953 524.844 202.5 525.079 202.968 525.235Z" fill="#353535"></path>
<path d="M215.625 326.797C217.031 324.688 222.188 322.891 225.156 324.922C229.453 327.891 228.047 335.703 228.047 340C227.969 356.094 228.203 371.953 228.516 387.969C228.75 401.094 232.5 413.594 233.203 426.719C233.906 439.219 234.297 451.641 236.719 463.984C238.906 475.391 236.563 486.719 238.36 497.891C231.016 500.391 220.469 496.953 212.735 496.484C203.75 496.016 194.141 498.828 185.781 497.656C180.703 472.5 176.875 444.609 176.953 418.984C177.031 403.281 177.656 387.578 177.813 371.875C177.969 361.406 181.406 352.266 182.11 341.953C182.344 338.281 180.078 328.125 182.969 325.391C184.766 323.75 194.219 325.234 196.797 325.313C202.344 325.625 209.453 326.172 215.625 326.797Z" fill="#C4B6FF"></path>
<path d="M215.625 326.797C217.031 324.688 222.188 322.891 225.156 324.922C229.453 327.891 228.047 335.703 228.047 340C227.969 356.094 228.203 371.953 228.516 387.969C228.75 401.094 232.5 413.594 233.203 426.719C233.906 439.219 234.297 451.641 236.719 463.984C238.906 475.391 236.563 486.719 238.36 497.891C231.016 500.391 220.469 496.953 212.735 496.484C203.75 496.016 194.141 498.828 185.781 497.656C180.703 472.5 176.875 444.609 176.953 418.984C177.031 403.281 177.656 387.578 177.813 371.875C177.969 361.406 181.406 352.266 182.11 341.953C182.344 338.281 180.078 328.125 182.969 325.391C184.766 323.75 194.219 325.234 196.797 325.313C202.344 325.625 209.453 326.172 215.625 326.797Z" fill="black" fill-opacity="0.24"></path>
<path d="M171.094 507.578C172.031 506.015 171.641 509.609 171.641 511.094C171.562 514.14 170.859 517.265 170.391 520.234C169.922 523.203 169.531 526.015 169.297 528.906C156.172 537.812 160.312 514.453 161.719 507.969" stroke="#353535" stroke-width="3.5865" stroke-miterlimit="10" stroke-linecap="round"></path>
<path d="M209.062 543.594C205.937 543.594 202.422 543.594 198.75 543.515C197.422 543.75 196.016 543.75 194.609 543.75C192.344 543.75 190.234 543.984 188.047 544.453C185.703 544.922 183.359 544.765 181.016 544.765C176.797 544.765 172.578 544.609 168.359 544.297C165.547 544.062 162.344 544.062 159.609 542.969C159.062 542.734 158.594 542.5 158.047 542.187C157.734 541.953 157.344 541.719 157.031 541.484C155.469 540.156 154.687 536.875 154.531 534.922C154.375 532.656 153.281 524.062 153.125 521.719C152.969 520.078 158.359 521.719 158.828 522.031C161.172 523.828 162.422 525.234 165.703 524.844C168.047 524.531 170 523.359 171.641 521.953C172.578 521.172 173.906 521.094 174.922 521.797C177.734 523.828 182.422 525.078 183.594 526.328C191.719 530.859 201.016 532.969 210 535.703C217.891 538.125 218.359 543.515 209.062 543.594Z" fill="#C4B6FF"></path>
<path d="M159.609 542.968C159.531 542.968 159.531 542.968 159.453 542.968C158.672 542.812 158.281 542.578 158.047 542.265C158.516 542.5 159.062 542.734 159.609 542.968Z" fill="#353535"></path>
<path d="M137.734 331.406C137.734 348.672 137.109 368.359 143.203 384.609C146.797 394.14 154.531 406.093 153.359 416.64C152.578 423.515 149.375 431.328 147.891 438.515C145.703 448.593 142.031 459.453 141.328 470.078C140.469 483.515 140.547 497.422 140.469 510.781C140.469 511.64 139.688 510.781 138.984 511.484C144.375 517.109 162.656 512.187 170.469 511.484C176.641 510.937 184.766 510.625 188.438 514.453C192.109 511.015 192.344 499.687 193.906 494.531C197.109 483.984 195.859 472.89 196.328 462.031C196.953 444.922 203.906 427.968 204.219 411.64C204.375 404.609 201.016 395.859 200.156 388.672C199.453 382.89 199.297 372.422 196.094 367.812C195.625 358.515 197.344 348.437 196.719 339.453C196.172 331.484 190.859 331.406 183.828 329.375C174.375 326.64 164.531 327.89 154.609 327.343C149.844 327.031 140.625 327.031 137.734 331.406Z" fill="#C4B6FF"></path>
<path d="M209.219 230.547C186.797 230.469 162.031 232.812 146.875 251.015C140.547 258.515 139.844 270.937 136.875 280.078C135.547 284.14 133.594 331.797 140.547 330.547C144.453 329.844 178.672 331.406 181.953 330.078L224.687 330.234C227.969 331.641 249.531 248.359 229.14 238.594C215.156 231.875 209.219 230.547 209.219 230.547Z" fill="#353535"></path>
<path d="M207.266 218.906L205.469 235.859C205.078 239.531 201.797 242.188 198.125 241.797C194.453 241.406 191.797 238.125 192.188 234.453L193.984 217.5C194.375 213.828 197.656 211.172 201.328 211.563C203.125 211.719 204.766 212.656 205.859 213.984C206.875 215.313 207.5 217.031 207.266 218.906Z" fill="#EED3AC"></path>
<path d="M207.266 218.906L206.328 227.5C201.563 226.484 197.5 222.031 193.75 219.219L193.906 217.5C194.297 213.828 197.578 211.172 201.25 211.563C203.047 211.719 204.687 212.656 205.781 213.984C206.875 215.313 207.5 217.031 207.266 218.906Z" fill="#353535"></path>
<path d="M245.078 208.047C245.078 208.672 245.078 209.297 245 210C244.844 211.484 244.531 212.969 243.984 214.297C243.125 216.563 241.797 218.516 240.234 220.156C237.109 223.281 232.812 225.234 228.125 225.234C227.578 225.234 226.953 225.234 226.406 225.156L210.703 223.516C209.375 223.359 208.125 223.203 206.875 222.891C202.109 221.875 197.812 219.844 194.062 217.031C189.219 213.438 185.391 208.594 183.047 203.047C181.875 200.312 181.094 197.344 180.625 194.375C180.469 192.969 180.312 191.484 180.312 190C180.312 188.75 180.391 187.5 180.469 186.25L187.656 187.031L229.922 191.484C235.547 192.109 240.234 195.391 242.812 199.922C244.297 202.187 245.078 205.078 245.078 208.047Z" fill="#EED3AC"></path>
<path d="M186.406 201.25C182.656 204.297 177.11 203.672 174.141 199.922C171.094 196.172 171.719 190.625 175.469 187.656" stroke="#353535" stroke-width="3.5865" stroke-miterlimit="10" stroke-linecap="round"></path>
<path d="M219.375 218.125C219.766 219.922 223.516 220.937 224.687 219.687" stroke="#353535" stroke-width="3.5865" stroke-miterlimit="10" stroke-linecap="round"></path>
<path d="M208.906 199.766C209.453 199.297 210.078 199.062 210.703 198.828C211.328 198.672 211.953 198.594 212.578 198.516C213.203 198.516 213.828 198.516 214.453 198.594C215.078 198.672 215.703 198.828 216.406 199.062H216.484C217.344 199.375 217.734 200.234 217.422 201.094C217.109 201.953 216.25 202.344 215.39 202.031C215.312 202.031 215.156 201.953 215.078 201.875C214.375 201.406 213.437 201.094 212.5 200.938C211.562 200.781 210.547 200.781 209.844 201.172H209.765C209.297 201.406 208.828 201.172 208.594 200.781C208.515 200.391 208.594 200 208.906 199.766Z" fill="#353535"></path>
<path d="M234.609 204.297C234.453 204.062 234.219 203.828 233.828 203.594C233.437 203.359 233.047 203.203 232.578 203.047C231.641 202.734 230.625 202.656 229.687 202.734H229.609C229.141 202.734 228.75 202.422 228.75 201.953C228.75 201.562 228.984 201.25 229.297 201.094C230.469 200.703 231.719 200.625 232.969 200.703C233.594 200.781 234.219 200.859 234.922 201.094C235.547 201.328 236.25 201.641 236.875 202.187L237.031 202.344C237.656 202.969 237.734 203.984 237.109 204.609C236.484 205.234 235.469 205.312 234.844 204.687C234.844 204.609 234.687 204.453 234.609 204.297Z" fill="#353535"></path>
<path d="M209.922 204.062C210.234 202.891 211.406 202.266 212.578 202.578C213.125 202.734 213.516 203.047 213.828 203.516" stroke="#353535" stroke-width="3.5865" stroke-miterlimit="10" stroke-linecap="round"></path>
<path d="M229.844 206.25C230.234 205.781 230.781 205.469 231.484 205.469C232.656 205.469 233.672 206.406 233.672 207.578" stroke="#353535" stroke-width="3.5865" stroke-miterlimit="10" stroke-linecap="round"></path>
<path d="M223.75 212.969C223.984 213.516 225.469 213.594 225.938 212.969C226.328 212.422 225.938 210.937 225.703 211.172" stroke="#353535" stroke-width="3.5865" stroke-miterlimit="10" stroke-linecap="round"></path>
<path d="M261.719 193.281C260.938 192.813 259.766 193.125 259.688 193.828C259.688 196.25 258.047 198.438 255.078 199.766C250.156 201.875 243.36 200.703 239.297 198.125C237.031 196.719 236.016 195 235.469 193.672C235.235 192.969 233.906 192.734 233.281 193.203C231.016 195 227.578 195.625 225.078 194.844C222.891 194.219 221.406 192.422 220.938 190.547C219.531 191.641 216.641 193.516 211.875 194.297C202.891 195.703 191.172 192.344 187.266 186.406C186.797 185.703 183.438 180.391 188.281 176.484C192.656 172.969 200.156 173.594 200.86 173.672C200.86 170.547 203.203 167.891 207.031 166.953C209.531 166.328 214.141 166.094 216.953 167.969C218.438 168.984 218.828 170.156 218.906 170.859C221.641 169.219 230.078 164.766 242.266 165.391C253.203 165.938 267.422 170.547 268.438 176.094C268.75 177.891 267.656 179.531 266.094 180.859C272.422 181.953 276.875 185.313 277.11 188.75C277.266 191.094 275.469 194.063 271.016 194.844C267.969 195.469 264.453 194.844 261.719 193.281Z" stroke="#353535" stroke-width="3.5865" stroke-miterlimit="10" stroke-linecap="round"></path>
<path d="M177.656 194.922C179.219 195.078 179.531 195.625 180 197.188" stroke="#353535" stroke-width="3.2234" stroke-miterlimit="10" stroke-linecap="round"></path>
<path d="M179.531 195.234C180 194.609 180.625 194.063 181.406 193.906" stroke="#353535" stroke-width="3.2234" stroke-miterlimit="10" stroke-linecap="round"></path>
<path d="M179.922 189.766C181.563 190.391 183.281 190.625 184.922 190.313C186.172 190.078 187.187 189.609 188.047 189.062" stroke="#353535" stroke-width="3.5865" stroke-miterlimit="10" stroke-linecap="round"></path>
<path d="M194.453 170.547C193.359 169.219 191.719 167.812 189.531 166.953C181.719 163.75 174.297 169.844 173.828 170.234C172.5 171.328 168.281 174.922 168.75 179.922C168.828 180.937 169.141 181.953 169.609 182.969" stroke="#353535" stroke-width="3.5865" stroke-miterlimit="10" stroke-linecap="round"></path>
<path d="M270.625 166.25C271.719 165.703 273.359 165.156 274.531 164.453" stroke="#353535" stroke-width="3.5865" stroke-miterlimit="10" stroke-linecap="round"></path>
<path d="M275.703 175C277.266 174.844 278.984 174.766 280.547 175.156" stroke="#353535" stroke-width="3.5865" stroke-miterlimit="10" stroke-linecap="round"></path>
<path d="M161.25 197.344C159.062 196.797 156.25 196.875 155.469 199.375" stroke="#353535" stroke-width="3.5865" stroke-miterlimit="10" stroke-linecap="round"></path>
<path d="M150.391 187.187C151.953 186.563 153.75 186.641 155.313 186.562" stroke="#353535" stroke-width="3.5865" stroke-miterlimit="10" stroke-linecap="round"></path>
<path d="M232.812 285.938C233.75 293.828 249.766 302.031 256.172 307.266C256.875 307.812 257.578 308.359 258.203 308.906C262.578 312.5 283.359 309.375 286.328 304.531C298.125 284.922 311.406 265.938 318.672 243.359C309.922 240.625 300.156 235.391 290.938 233.516C286.094 232.5 280 232.891 275.781 230.625C275.547 231.406 275.781 232.031 275.625 232.813C273.594 245 268.906 251.25 270.156 263.516C262.969 262.891 254.297 253.984 247.5 251.25C243.281 249.531 233.359 239.219 222.5 236.641" fill="#353535"></path>
<path d="M178.828 259.453C196.016 262.422 227.266 292.344 234.531 302.891C240.703 311.797 256.25 319.141 284.063 322.969C293.125 324.219 310.703 325.156 310.703 325.156L301.172 355.703C301.172 355.703 282.266 355.937 245.469 347.5C216.016 340.703 192.109 314.609 192.109 314.609" stroke="#78D2EE" stroke-width="3" stroke-miterlimit="10" stroke-linecap="round"></path>
<path d="M156.953 540.469C156.953 541.641 156.016 544.766 156.484 546.172C157.031 547.891 159.375 547.891 160.781 548.047C163.984 548.36 167.266 548.36 170.469 548.36C174.922 548.36 179.375 549.063 183.828 549.219C189.453 549.453 195.391 549.141 201.016 548.75C204.219 548.516 207.344 547.891 210.391 546.953C213.906 545.938 218.125 545.547 218.359 541.172C218.437 539.688 218.125 538.281 216.328 538.203C214.531 538.125 215.078 540.235 213.672 540.391" stroke="#005B9D" stroke-width="2" stroke-miterlimit="10" stroke-linecap="round"></path>
<path d="M406.094 202.5C400.156 202.812 393.984 203.203 388.047 202.734C382.969 202.344 347.734 206.25 342.578 206.406C337.187 206.562 331.562 208.359 326.25 207.812C325.312 201.641 323.203 195.156 322.187 188.672C321.172 181.953 322.578 170.391 320.078 165.469C329.844 164.219 369.766 154.141 379.453 151.406C383.984 150.078 391.562 145.469 398.125 143.359C398.437 148.437 399.609 154.062 400 158.125C400.625 166.172 400.859 174.219 402.969 182.031C403.437 183.672 403.828 185.234 404.219 186.797C405.078 192.031 405.781 197.187 406.094 202.5Z" fill="white" stroke="#005B9D" stroke-width="3" stroke-miterlimit="10"></path>
<path d="M513.75 201.641C500.703 202.891 456.797 207.187 442.422 207.5C437.032 207.656 410.86 213.359 408.36 210C408.125 207.266 407.813 204.609 407.422 202.031C406.641 196.875 405.547 191.797 404.219 186.719C403.828 185.156 403.438 183.594 402.969 181.953C400.86 174.141 400.625 166.094 400 158.047C399.688 153.984 398.516 148.281 398.125 143.281C398.125 143.047 398.125 142.812 398.047 142.5C397.891 139.922 398.047 137.422 398.594 135.547C408.125 131.172 420.625 130.703 430.703 127.734C437.969 125.625 471.641 118.594 479.063 116.719C486.641 114.844 493.438 113.125 501.094 112.422C502.657 112.266 502.891 111.406 504.141 110.469C508.125 117.344 507.266 130.312 507.969 138.516C508.907 149.687 509.61 160.859 510.157 172.109C510.625 180.703 510.782 193.828 513.75 201.641Z" fill="white" stroke="#005B9D" stroke-width="3" stroke-miterlimit="10"></path>
<path d="M325.781 201.563C323.047 201.797 308.593 203.438 303.515 203.984C298.203 204.531 271.484 206.016 255.156 207.188C249.453 207.578 245.078 208.047 243.203 208.359C238.906 209.141 233.984 212.344 230.312 210.234C229.687 209.922 229.14 208.984 228.672 207.813C228.593 207.656 228.593 207.578 228.593 207.578C227.343 204.297 226.875 199.219 228.828 198.359C239.843 193.516 289.218 183.75 299.922 178.516C307.031 175 314.843 173.281 321.64 169.062C323.515 169.375 326.093 197.031 325.781 201.563Z" fill="#C4B6FF"></path>
<path d="M346.172 148.047C345.625 164.922 347.422 198.047 352.187 214.141C354.922 214.062 372.578 214.531 369.609 211.406C369.688 189.609 366.719 167.187 365.703 145.469C360.234 146.641 351.953 147.813 346.172 148.047Z" fill="#C4B6FF"></path>
<path d="M301.172 241.953C302.891 236.797 308.203 221.797 310.547 217.031" stroke="#353535" stroke-width="3.5865" stroke-miterlimit="10" stroke-linecap="round"></path>
<path d="M310.234 174.453C310.625 170.938 315.547 163.438 317.891 169.453" stroke="#353535" stroke-width="3.5865" stroke-miterlimit="10" stroke-linecap="round"></path>
<path d="M294.453 205.547C293.672 202.969 291.875 198.672 291.718 195.937C291.64 194.922 290.937 193.594 291.64 192.969C297.265 188.125 302.031 203.437 310.39 204.219" fill="#EED3AC"></path>
<path d="M316.562 340.313C316.25 342.5 318.594 345.234 320.625 345.859C322.422 346.406 324.297 347.109 326.172 347.578C329.375 348.359 332.891 348.75 336.094 349.375C339.609 350.078 340.781 349.766 343.984 348.516C346.25 347.578 350.312 345.859 352.109 344.219C353.359 342.969 352.656 341.328 352.656 339.766C352.656 338.281 353.047 336.641 353.594 335.234C354.219 333.516 356.875 327.188 353.984 325.938C353.984 325.938 355.937 320.859 350.312 316.25C344.687 311.641 332.344 317.656 332.344 317.656C332.344 317.656 319.687 325.469 319.219 328.438C318.75 331.563 316.562 340.313 316.562 340.313Z" fill="#EED3AC"></path>
<path d="M349.297 309.766C349.297 309.766 358.281 319.531 356.172 322.344C354.062 325.078 352.656 328.594 352.656 328.594L348.047 316.563L349.297 309.766Z" fill="#EED3AC"></path>
<path opacity="0.2" d="M228.75 208.047C228.906 208.359 229.141 208.828 229.453 209.375C229.219 208.984 228.984 208.594 228.75 208.047Z" fill="#353535"></path>
<path opacity="0.2" d="M245.078 208.047C245.078 208.672 245.078 209.297 245 210C244.844 211.484 244.531 212.969 243.984 214.297C243.125 216.562 241.797 218.516 240.234 220.156C237.656 218.672 235.312 216.797 234.297 215.937C232.969 214.844 230.781 211.563 229.531 209.453C229.766 209.844 230.078 210.078 230.312 210.234C233.984 212.344 238.984 209.141 243.203 208.359C243.672 208.281 244.297 208.125 245.078 208.047Z" fill="#353535"></path>
<path opacity="0.2" d="M404.219 186.719L379.766 192.5C377.266 193.047 374.688 192.031 373.359 189.844L368.438 155.156L366.25 155.938L369.453 203.984L406.094 202.578L404.219 186.719Z" fill="#353535"></path>
<path opacity="0.2" d="M347.188 181.797L350.156 205.703L326.172 207.734L324.844 198.047C324.844 198.047 340.234 197.187 342.656 194.062C345.078 190.937 347.188 181.797 347.188 181.797Z" fill="#353535"></path>
<path opacity="0.2" d="M495.547 113.203L492.969 177.969C492.266 182.187 488.984 185.391 484.766 185.937L406.172 196.328L408.359 210C408.359 210 429.453 210.703 462.812 206.25C496.172 201.797 513.75 201.641 513.75 201.641L508.75 146.094L495.547 113.203Z" fill="#353535"></path>
<path d="M638.906 519.063C636.016 475 637.422 432.578 656.797 391.797C667.656 368.906 677.734 345.625 690.625 323.828C694.063 317.969 713.594 291.641 723.906 301.094C729.219 305.938 722.031 321.485 719.922 326.016C711.797 343.047 702.031 359.297 695.156 376.953C688.047 395.469 684.297 415.781 678.984 434.922C674.063 452.578 666.563 469.219 662.109 486.797C660.703 492.422 640.313 534.141 638.906 519.063Z" fill="#C4B6FF"></path>
<path d="M654.297 455.156C650.469 450.703 650.547 446.328 649.297 440.938C646.484 429.141 642.11 417.266 638.203 405.781C629.219 379.219 623.906 352.031 620.156 324.219C618.672 313.203 599.141 222.344 622.734 223.438C630.469 223.75 628.672 237.266 629.766 243.516C632.5 258.281 636.563 272.422 641.016 286.719C647.891 308.828 652.734 332.344 656.875 355.156C659.922 372.109 666.25 387.344 665.313 404.922C664.609 417.188 663.281 446.25 654.297 455.156Z" fill="#C4B6FF"></path>
<path d="M653.203 464.219C649.766 461.484 649.219 458.281 647.5 454.531C643.75 446.25 638.828 438.203 634.297 430.391C623.828 412.266 616.094 393.125 609.297 373.281C606.641 365.469 579.219 301.797 596.641 299.141C602.344 298.281 602.969 308.438 604.687 312.813C608.828 323.203 613.828 332.969 619.141 342.813C627.344 357.969 634.297 374.531 640.625 390.625C645.312 402.656 652.187 412.813 653.984 425.859C655.312 435 658.516 456.484 653.203 464.219Z" fill="#C4B6FF"></path>
<path d="M643.985 527.813C641.016 527.813 638.047 527.578 635.625 527.422C635.391 526.563 635.625 525.86 636.328 529.219C624.063 526.641 610.235 510.078 601.485 501.407C589.219 489.219 581.797 480.078 573.516 465.313C576.719 466.25 579.844 467.344 582.891 468.438C572.031 457.188 565.703 443.282 561.094 428.203C558.75 420.547 552.813 404.766 558.047 397.188C560.781 397.422 563.75 398.36 566.25 399.688C567.266 385.391 562.266 371.563 563.125 357.11C570.156 356.563 572.656 360.938 578.281 359.063C581.953 357.813 581.563 352.11 587.735 354.61C593.672 356.953 592.031 366.875 597.5 370.313C602.422 373.36 604.61 369.688 608.985 368.985C619.531 367.344 616.172 370.078 623.906 377.5C631.641 385 637.656 390.156 642.656 399.61C647.5 408.828 657.969 415.703 660.86 424.532C663.75 433.36 662.969 446.094 662.5 455.235C661.719 471.953 668.672 484.844 664.219 502.031C662.578 508.203 663.125 516.719 659.219 522.032C656.406 525.86 645 531.563 640.156 528.36C631.016 522.344 658.125 500.235 662.5 493.75C674.61 475.86 687.5 458.516 702.813 443.203C716.563 429.453 730.156 411.016 736.094 392.422C729.766 398.516 722.969 405.078 716.016 410.469C702.11 421.328 691.641 430 681.563 445.938C669.141 465.469 640.781 492.813 643.125 518.203" fill="#C4B6FF"></path>
<path d="M656.25 521.64C663.36 517.343 676.172 511.953 684.766 506.172C690.079 502.578 702.422 491.64 688.047 489.218C698.36 486.718 714.844 476.25 712.422 463.75C704.922 462.5 701.954 467.734 696.485 471.172C693.829 459.843 687.11 461.015 678.282 459.531C673.282 458.75 673.125 455.781 667.344 458.672C664.141 460.312 661.797 464.062 660 466.875C653.516 477.031 652.5 485.234 652.969 497.343C653.204 502.734 653.125 505.937 652.032 511.328C651.407 514.218 648.75 520.312 656.25 521.64Z" fill="#C4B6FF"></path>
<path d="M598.047 389.531C599.141 388.437 600.078 387.266 600.938 386.016C605.391 392.344 603.594 402.422 606.719 409.219C608.594 407.969 611.406 406.328 612.734 403.906C618.672 406.641 618.437 418.906 623.203 423.984C625.625 426.562 627.891 424.766 630.391 428.75C634.531 435.391 632.109 448.437 632.109 455.937" stroke="#78D2EE" stroke-width="2" stroke-miterlimit="10" stroke-linecap="round"></path>
<path d="M669.609 420.234C673.516 391.719 682.578 358.047 695.156 332.422" stroke="#78D2EE" stroke-width="2" stroke-miterlimit="10" stroke-linecap="round"></path>
<path d="M649.141 340.156C649.141 337.969 649.141 335.859 649.141 333.672C649.062 328.047 645.156 318.75 646.328 313.672C647.891 307.031 650.312 311.25 655.312 313.125C655.703 300.312 659.687 289.453 665.781 278.281C669.219 271.875 670.937 262.891 677.422 259.062C680.625 257.187 681.719 258.047 685.078 256.562C690.078 254.375 692.734 247.656 698.281 246.016C701.797 245 707.734 244.844 711.641 244.219C712.656 253.281 705.859 258.75 704.219 266.953C706.484 268.594 709.062 267.109 710.547 269.453C712.109 271.953 709.453 277.266 708.594 279.375C706.25 285 703.984 293.594 700.625 298.359C698.594 301.25 694.609 302.422 692.5 305.391C689.844 309.219 689.297 314.766 687.422 319.062C684.297 326.094 679.297 330.781 677.891 338.672C676.797 344.844 676.328 351.172 674.766 357.344C672.734 365.156 668.516 371.25 665.859 378.672C664.687 381.953 664.844 393.672 660.859 394.219C654.531 395.078 651.562 376.875 650.703 372.969C647.969 361.016 642.969 349.219 649.141 340.156Z" fill="#C4B6FF"></path>
<path d="M539.922 154.844C539.922 162.812 540.156 172.266 536.484 179.531" stroke="white" stroke-width="6" stroke-miterlimit="10" stroke-linecap="round"></path>
<path d="M352.813 214.141C352.813 214.141 364.453 214.297 365.781 213.672L365.469 220.469C365.156 222.891 357.422 222.969 351.797 219.922L352.813 214.141Z" fill="#353535"></path>
<path d="M618.906 511.328C616.484 507.031 604.453 503.672 601.172 508.438C599.766 510.469 604.688 522.344 609.141 525.156C615.703 529.219 628.984 528.985 632.734 530.391C636.875 531.875 641.875 529.922 646.172 529.531C652.656 528.828 658.75 530.078 665.156 530.625C667.813 530.86 670.781 530.859 672.969 529.375C674.531 528.281 675.703 526.172 676.875 524.766C679.375 521.719 682.188 518.828 684.766 515.859C686.797 513.516 691.563 510 692.188 506.953C684.531 505.156 678.438 505.781 670.703 505.781C656.563 505.781 641.406 502.5 627.813 507.266C624.297 508.359 620.469 509.922 618.906 511.328Z" fill="#C4B6FF"></path>
<path d="M629.844 504.844C632.5 501.485 640.547 494.453 644.844 495.547C644.531 503.828 649.766 497.813 654.297 495.547C660.781 492.188 661.484 499.453 667.578 497.891C670.625 497.11 669.531 497.11 672.266 498.203C675.859 499.61 678.359 499.297 682.109 499.297C687.266 499.297 690.703 502.656 691.094 507.891C691.25 509.688 690.625 511.485 690.781 513.281C690.937 514.922 691.797 516.25 691.641 517.969C691.484 520.781 689.453 522.422 689.453 525.235" stroke="#78D2EE" stroke-width="2" stroke-miterlimit="10" stroke-linecap="round"></path>
<path d="M135.781 50C121.016 50 108.594 60.1563 105.156 73.8281H91.5625C80.7031 73.8281 71.875 82.6563 71.875 93.5156C71.875 104.375 80.7031 113.203 91.5625 113.203H165.391C176.25 113.203 185.078 104.375 185.078 93.5156C185.078 82.9688 176.797 74.375 166.406 73.8281C162.969 60.1563 150.547 50 135.781 50Z" fill="#7D55FF"></path>
<path d="M660.625 113.203C648.359 113.203 638.047 121.641 635.156 133.047C626.484 133.516 619.609 140.625 619.609 149.453C619.609 158.516 626.953 165.859 636.016 165.859H721.719C730.781 165.859 738.125 158.516 738.125 149.453C738.125 140.391 730.781 133.047 721.719 133.047H686.094C683.203 121.641 672.969 113.203 660.625 113.203Z" fill="#7D55FF"></path>
<path d="M527.969 205.782L514.844 207.657C511.797 208.125 508.906 205.938 508.437 202.891L495.156 110.157C494.687 107.11 496.875 104.219 499.922 103.75L513.047 101.875C516.094 101.407 518.984 103.594 519.453 106.641L532.734 199.297C533.125 202.5 531.015 205.313 527.969 205.782Z" fill="#C4B6FF"></path>
<path opacity="0.2" d="M232.656 57.5781L235.078 62.5L240.625 63.3594L236.641 67.1875L237.578 72.6563L232.656 70.0781L227.734 72.6563L228.672 67.1875L224.688 63.3594L230.156 62.5L232.656 57.5781Z" fill="#7D55FF"></path>
<path opacity="0.2" d="M495.625 236.562L498.047 241.562L503.516 242.344L499.531 246.25L500.469 251.719L495.625 249.141L490.703 251.719L491.641 246.25L487.656 242.344L493.125 241.562L495.625 236.562Z" fill="#7D55FF"></path>
<path opacity="0.2" d="M645.703 50.8594L648.203 55.8594L653.672 56.6406L649.687 60.4687L650.625 65.9375L645.703 63.3594L640.781 65.9375L641.719 60.4687L637.734 56.6406L643.281 55.8594L645.703 50.8594Z" fill="#7D55FF"></path>
<path opacity="0.2" d="M403.516 50.8594L404.766 53.3594L407.5 53.75L405.469 55.7031L405.938 58.4375L403.516 57.1094L401.094 58.4375L401.563 55.7031L399.531 53.75L402.266 53.3594L403.516 50.8594Z" fill="#7D55FF"></path>
<path opacity="0.2" d="M746.719 188.281L747.969 190.781L750.703 191.172L748.75 193.125L749.219 195.859L746.719 194.609L744.297 195.859L744.766 193.125L742.734 191.172L745.469 190.781L746.719 188.281Z" fill="#7D55FF"></path>
<path opacity="0.2" d="M765.547 58.4375L766.797 60.8594L769.531 61.3281L767.578 63.2031L768.047 65.9375L765.547 64.6875L763.125 65.9375L763.594 63.2031L761.562 61.3281L764.297 60.8594L765.547 58.4375Z" fill="#7D55FF"></path>
<path opacity="0.2" d="M41.4844 58.4375L42.7344 60.8594L45.4688 61.3281L43.4375 63.2031L43.9062 65.9375L41.4844 64.6875L38.9844 65.9375L39.4531 63.2031L37.5 61.3281L40.2344 60.8594L41.4844 58.4375Z" fill="#7D55FF"></path>
<path opacity="0.2" d="M96.1719 199.453L97.4219 201.953L100.156 202.344L98.125 204.297L98.5937 207.031L96.1719 205.703L93.6719 207.031L94.1406 204.297L92.1875 202.344L94.9219 201.953L96.1719 199.453Z" fill="#7D55FF"></path>
<path d="M290.078 236.875C290.469 231.953 297.734 217.891 299.062 213.359C293.392 208.66 290.156 195.386 290.078 194.371" stroke="#353535" stroke-width="3.5865" stroke-miterlimit="10" stroke-linecap="round"></path>
</svg>
